<?xml version="1.0" standalone="no"?>
<!DOCTYPE svg PUBLIC "-//W3C//DTD SVG 1.1//EN" "http://www.w3.org/Graphics/SVG/1.1/DTD/svg11.dtd">
<!-- <svg t="1588725689030" class="icon" viewBox="0 0 1024 1024" version="1.1" xmlns="http://www.w3.org/2000/svg" p-id="3695" data-spm-anchor-id="a313x.7781069.0.i9" width="50" height="50">
	<path d="M1015.552 398.848c-1.28-3.84-6.656-6.912-14.592-7.936l-284.672-41.472c-25.344-3.584-54.272-24.576-65.536-47.616L523.52 44.032c-3.584-7.168-8.192-11.52-12.032-11.52-4.096 0-8.448 4.352-12.032 11.52L371.968 302.08c-11.264 23.04-40.192 44.032-65.536 47.616L21.76 390.912c-7.936 1.28-13.568 4.096-14.592 7.936-1.28 3.84 1.536 9.472 7.168 15.104l124.928 121.856L220.16 614.912c18.432 17.92 29.44 51.712 25.088 77.056L196.608 975.36c-1.28 6.912-0.512 12.544 2.048 15.36 1.28 1.536 3.328 2.304 5.888 2.304 3.328 0 7.424-1.28 11.776-3.584l89.6-47.104 165.12-86.784c11.008-5.632 25.344-8.96 40.448-8.96s29.696 3.072 40.448 8.96l192.256 101.12 62.208 32.768c4.352 2.304 8.448 3.584 11.776 3.584 2.56 0 4.608-0.768 5.888-2.304 2.304-2.816 3.072-8.448 2.048-15.36l-48.64-283.392c-4.352-25.344 6.656-59.136 25.088-77.056l100.352-97.792 105.728-103.168c5.632-5.632 8.192-11.264 6.912-15.104z m0 0" fill="#E3E3E3" p-id="3696">
		
	</path>
	<path d="M511.232 32.512c-4.096 0-8.448 4.352-12.032 11.52L371.968 302.08c-11.264 23.04-40.192 44.032-65.536 47.616L21.76 390.912c-7.936 1.28-13.568 4.096-14.592 7.936-1.28 3.84 1.536 9.472 7.168 15.104l124.928 121.856L220.16 614.912c18.432 17.92 29.44 51.712 25.088 77.056L196.608 975.36c-1.28 6.912-0.512 12.544 2.048 15.36 1.28 1.536 3.328 2.304 5.888 2.304 3.328 0 7.424-1.28 11.776-3.584l89.6-47.104 165.12-86.784c11.008-5.632 25.344-8.96 40.448-8.96v-814.08z m504.32 366.336" fill="#f4ea2a" p-id="3697">
		
	</path>
</svg> -->
<svg t="1588726591397" class="icon" viewBox="0 0 1024 1024" version="1.1" xmlns="http://www.w3.org/2000/svg" p-id="15978" width="30" height="30">
	<path d="M562.177 62.631l105.348 223.33a56.254 56.254 0 0 0 42.115 32.008l235.845 36.1A59.202 59.202 0 0 1 976.47 453.7L805.783 627.576a60.165 60.165 0 0 0-16.003 51.681l40.25 245.472a56.494 56.494 0 0 1-81.102 61.608L538.05 870.159a53.607 53.607 0 0 0-51.982 0L275.132 986.036a56.434 56.434 0 0 1-81.041-61.608l40.61-245.652a60.165 60.165 0 0 0-16.123-51.681L47.71 453.4a59.082 59.082 0 0 1 30.925-99.512l235.785-36.099a56.194 56.194 0 0 0 42.115-32.008l105.348-223.15a54.87 54.87 0 0 1 100.234 0" fill="#E3E3E3" p-id="15979">	
	</path>
	<path d="M257.89 992.714a55.231 55.231 0 0 1-42.115-19.974 58.901 58.901 0 0 1-13.056-48.493l40.31-245.471a60.165 60.165 0 0 0-16.124-51.681L56.46 453.4a59.804 59.804 0 0 1-13.777-61.188 55.532 55.532 0 0 1 44.943-38.445l235.844-36.098a56.133 56.133 0 0 0 42.116-32.008l105.288-223.33a54.93 54.93 0 0 1 49.936-32.249v833.339h-0.421a52.945 52.945 0 0 0-25.57 6.618L283.881 985.976a53.306 53.306 0 0 1-25.99 6.738z" fill="#f4ea2a" p-id="15980">
	</path>
</svg>