<?xml version="1.0" standalone="no"?>
<!DOCTYPE svg PUBLIC "-//W3C//DTD SVG 1.1//EN" "http://www.w3.org/Graphics/SVG/1.1/DTD/svg11.dtd">
<svg t="1588724990183" class="icon" viewBox="0 0 1024 1024" version="1.1" xmlns="http://www.w3.org/2000/svg" p-id="1138" xmlns:xlink="http://www.w3.org/1999/xlink" width="30" height="30">
	<defs><style type="text/css"></style></defs>
	<path d="M780.605313 1024a75.447439 75.447439 0 0 1-36.371077-9.518601L528.913457 896.04996a34.567552 34.567552 0 0 0-33.765986 0l-215.521171 118.431439a74.545677 74.545677 0 0 1-79.655663-4.609007 80.156642 80.156642 0 0 1-32.563636-79.154684l41.180475-250.489507a41.180475 41.180475 0 0 0-11.021538-35.569509L23.325437 466.710946A81.058404 81.058404 0 0 1 4.588822 383.949213 77.451355 77.451355 0 0 1 66.209241 330.845438l240.469926-36.571468a37.072447 37.072447 0 0 0 27.854433-21.24151L442.544675 44.886617a76.14881 76.14881 0 0 1 138.871382 0l107.510096 228.145843a37.373034 37.373034 0 0 0 28.054825 21.441902l240.469926 36.571468a77.551551 77.551551 0 0 1 61.720615 52.903383 80.958208 80.958208 0 0 1-18.63642 82.761733L826.294599 644.4583a40.980083 40.980083 0 0 0-10.921343 35.369118l41.080279 250.990486a80.156642 80.156642 0 0 1-32.563636 79.154684 74.94646 74.94646 0 0 1-43.284586 14.027412z" fill="#f4ea2a" p-id="1139"></path>
</svg>
